G75*
%MOIN*%
%OFA0B0*%
%FSLAX25Y25*%
%IPPOS*%
%LPD*%
%AMOC8*
5,1,8,0,0,1.08239X$1,22.5*
%
%ADD10C,0.00000*%
%ADD11C,0.00300*%
%ADD12R,0.15354X0.15354*%
%ADD13R,0.12598X0.12598*%
%ADD14R,0.05512X0.04331*%
%ADD15R,0.08000X0.02600*%
%ADD16R,0.04724X0.04724*%
%ADD17R,0.05906X0.05118*%
%ADD18R,0.05118X0.05906*%
%ADD19C,0.01200*%
%ADD20C,0.04000*%
%ADD21C,0.01600*%
%ADD22C,0.03962*%
D10*
X0006800Y0006800D02*
X0006800Y0136761D01*
X0095501Y0136761D01*
X0095501Y0006800D01*
X0006800Y0006800D01*
X0014635Y0016800D02*
X0014637Y0016893D01*
X0014643Y0016985D01*
X0014653Y0017077D01*
X0014667Y0017168D01*
X0014684Y0017259D01*
X0014706Y0017349D01*
X0014731Y0017438D01*
X0014760Y0017526D01*
X0014793Y0017612D01*
X0014830Y0017697D01*
X0014870Y0017781D01*
X0014914Y0017862D01*
X0014961Y0017942D01*
X0015011Y0018020D01*
X0015065Y0018095D01*
X0015122Y0018168D01*
X0015182Y0018238D01*
X0015245Y0018306D01*
X0015311Y0018371D01*
X0015379Y0018433D01*
X0015450Y0018493D01*
X0015524Y0018549D01*
X0015600Y0018602D01*
X0015678Y0018651D01*
X0015758Y0018698D01*
X0015840Y0018740D01*
X0015924Y0018780D01*
X0016009Y0018815D01*
X0016096Y0018847D01*
X0016184Y0018876D01*
X0016273Y0018900D01*
X0016363Y0018921D01*
X0016454Y0018937D01*
X0016546Y0018950D01*
X0016638Y0018959D01*
X0016731Y0018964D01*
X0016823Y0018965D01*
X0016916Y0018962D01*
X0017008Y0018955D01*
X0017100Y0018944D01*
X0017191Y0018929D01*
X0017282Y0018911D01*
X0017372Y0018888D01*
X0017460Y0018862D01*
X0017548Y0018832D01*
X0017634Y0018798D01*
X0017718Y0018761D01*
X0017801Y0018719D01*
X0017882Y0018675D01*
X0017962Y0018627D01*
X0018039Y0018576D01*
X0018113Y0018521D01*
X0018186Y0018463D01*
X0018256Y0018403D01*
X0018323Y0018339D01*
X0018387Y0018273D01*
X0018449Y0018203D01*
X0018507Y0018132D01*
X0018562Y0018058D01*
X0018614Y0017981D01*
X0018663Y0017902D01*
X0018709Y0017822D01*
X0018751Y0017739D01*
X0018789Y0017655D01*
X0018824Y0017569D01*
X0018855Y0017482D01*
X0018882Y0017394D01*
X0018905Y0017304D01*
X0018925Y0017214D01*
X0018941Y0017123D01*
X0018953Y0017031D01*
X0018961Y0016939D01*
X0018965Y0016846D01*
X0018965Y0016754D01*
X0018961Y0016661D01*
X0018953Y0016569D01*
X0018941Y0016477D01*
X0018925Y0016386D01*
X0018905Y0016296D01*
X0018882Y0016206D01*
X0018855Y0016118D01*
X0018824Y0016031D01*
X0018789Y0015945D01*
X0018751Y0015861D01*
X0018709Y0015778D01*
X0018663Y0015698D01*
X0018614Y0015619D01*
X0018562Y0015542D01*
X0018507Y0015468D01*
X0018449Y0015397D01*
X0018387Y0015327D01*
X0018323Y0015261D01*
X0018256Y0015197D01*
X0018186Y0015137D01*
X0018113Y0015079D01*
X0018039Y0015024D01*
X0017962Y0014973D01*
X0017883Y0014925D01*
X0017801Y0014881D01*
X0017718Y0014839D01*
X0017634Y0014802D01*
X0017548Y0014768D01*
X0017460Y0014738D01*
X0017372Y0014712D01*
X0017282Y0014689D01*
X0017191Y0014671D01*
X0017100Y0014656D01*
X0017008Y0014645D01*
X0016916Y0014638D01*
X0016823Y0014635D01*
X0016731Y0014636D01*
X0016638Y0014641D01*
X0016546Y0014650D01*
X0016454Y0014663D01*
X0016363Y0014679D01*
X0016273Y0014700D01*
X0016184Y0014724D01*
X0016096Y0014753D01*
X0016009Y0014785D01*
X0015924Y0014820D01*
X0015840Y0014860D01*
X0015758Y0014902D01*
X0015678Y0014949D01*
X0015600Y0014998D01*
X0015524Y0015051D01*
X0015450Y0015107D01*
X0015379Y0015167D01*
X0015311Y0015229D01*
X0015245Y0015294D01*
X0015182Y0015362D01*
X0015122Y0015432D01*
X0015065Y0015505D01*
X0015011Y0015580D01*
X0014961Y0015658D01*
X0014914Y0015738D01*
X0014870Y0015819D01*
X0014830Y0015903D01*
X0014793Y0015988D01*
X0014760Y0016074D01*
X0014731Y0016162D01*
X0014706Y0016251D01*
X0014684Y0016341D01*
X0014667Y0016432D01*
X0014653Y0016523D01*
X0014643Y0016615D01*
X0014637Y0016707D01*
X0014635Y0016800D01*
D11*
X0076950Y0014852D02*
X0076950Y0011950D01*
X0078885Y0011950D01*
X0079897Y0012434D02*
X0080380Y0011950D01*
X0081348Y0011950D01*
X0081831Y0012434D01*
X0081831Y0014369D01*
X0081348Y0014852D01*
X0080380Y0014852D01*
X0079897Y0014369D01*
X0079897Y0012434D01*
X0080864Y0012917D02*
X0081831Y0011950D01*
X0082843Y0012434D02*
X0083327Y0011950D01*
X0083811Y0011950D01*
X0084294Y0012434D01*
X0084294Y0014852D01*
X0083811Y0014852D02*
X0084778Y0014852D01*
X0085790Y0014369D02*
X0085790Y0012434D01*
X0086273Y0011950D01*
X0087241Y0011950D01*
X0087725Y0012434D01*
X0087725Y0014369D01*
X0087241Y0014852D01*
X0086273Y0014852D01*
X0085790Y0014369D01*
X0088736Y0014369D02*
X0088736Y0012434D01*
X0089220Y0011950D01*
X0090187Y0011950D01*
X0090671Y0012434D01*
X0090671Y0014369D01*
X0090187Y0014852D01*
X0089220Y0014852D01*
X0088736Y0014369D01*
D12*
X0051800Y0041800D03*
D13*
X0084083Y0041800D03*
X0019517Y0041800D03*
D14*
X0081800Y0072863D03*
X0081800Y0080737D03*
X0081800Y0092863D03*
X0081800Y0100737D03*
D15*
X0063900Y0089300D03*
X0063900Y0084300D03*
X0063900Y0079300D03*
X0063900Y0074300D03*
X0039700Y0074300D03*
X0039700Y0079300D03*
X0039700Y0084300D03*
X0039700Y0089300D03*
D16*
X0037666Y0121800D03*
X0045934Y0121800D03*
X0077666Y0121800D03*
X0085934Y0121800D03*
D17*
X0021800Y0100540D03*
X0021800Y0093060D03*
X0021800Y0080540D03*
X0021800Y0073060D03*
D18*
X0018060Y0121800D03*
X0025540Y0121800D03*
X0058060Y0121800D03*
X0065540Y0121800D03*
D19*
X0077666Y0121800D01*
X0085800Y0121800D02*
X0085934Y0121800D01*
X0085800Y0121800D02*
X0085800Y0107800D01*
X0090800Y0102800D01*
X0090800Y0041800D01*
X0084083Y0041800D01*
X0083800Y0041800D01*
X0051800Y0073800D01*
X0039800Y0073800D01*
X0039700Y0074300D01*
X0038800Y0073800D01*
X0023800Y0058800D01*
X0023800Y0041800D01*
X0019517Y0041800D01*
X0021800Y0073060D02*
X0021800Y0073800D01*
X0023800Y0075800D01*
X0025800Y0075800D01*
X0033800Y0083800D01*
X0038800Y0083800D01*
X0039700Y0084300D01*
X0039800Y0083800D01*
X0051800Y0083800D01*
X0055800Y0079800D01*
X0063800Y0079800D01*
X0063900Y0079300D01*
X0064800Y0079800D01*
X0072800Y0079800D01*
X0072800Y0094800D01*
X0077800Y0099800D01*
X0081800Y0099800D01*
X0081800Y0100737D01*
X0077800Y0107800D02*
X0069800Y0099800D01*
X0021800Y0099800D01*
X0021800Y0100540D01*
X0025540Y0121800D02*
X0037666Y0121800D01*
X0045934Y0121800D02*
X0051800Y0121800D01*
X0058060Y0121800D01*
X0069800Y0099800D02*
X0065800Y0095800D01*
X0065800Y0089800D01*
X0064800Y0089800D01*
X0063900Y0089300D01*
X0063900Y0074300D02*
X0064800Y0073800D01*
X0081800Y0073800D01*
X0081800Y0072863D01*
X0077800Y0107800D02*
X0085800Y0107800D01*
X0046800Y0079800D02*
X0039800Y0079800D01*
X0039700Y0079300D01*
D20*
X0046800Y0079800D03*
X0051800Y0121800D03*
D21*
X0053701Y0118474D02*
X0052556Y0118000D01*
X0051044Y0118000D01*
X0049884Y0118480D01*
X0049042Y0117638D01*
X0042826Y0117638D01*
X0041800Y0118664D01*
X0040774Y0117638D01*
X0034558Y0117638D01*
X0033504Y0118692D01*
X0033504Y0119400D01*
X0029899Y0119400D01*
X0029899Y0118102D01*
X0028845Y0117047D01*
X0022236Y0117047D01*
X0021800Y0117483D01*
X0021724Y0117407D01*
X0021314Y0117170D01*
X0020856Y0117047D01*
X0018539Y0117047D01*
X0018539Y0121320D01*
X0017580Y0121320D01*
X0017580Y0117047D01*
X0015264Y0117047D01*
X0014806Y0117170D01*
X0014396Y0117407D01*
X0014060Y0117742D01*
X0013823Y0118152D01*
X0013701Y0118610D01*
X0013701Y0121320D01*
X0017580Y0121320D01*
X0017580Y0122280D01*
X0017580Y0126553D01*
X0015264Y0126553D01*
X0014806Y0126430D01*
X0014396Y0126193D01*
X0014060Y0125858D01*
X0013823Y0125448D01*
X0013701Y0124990D01*
X0013701Y0122280D01*
X0017580Y0122280D01*
X0018539Y0122280D01*
X0018539Y0126553D01*
X0020856Y0126553D01*
X0021314Y0126430D01*
X0021724Y0126193D01*
X0021800Y0126117D01*
X0022236Y0126553D01*
X0028845Y0126553D01*
X0029899Y0125498D01*
X0029899Y0124200D01*
X0033504Y0124200D01*
X0033504Y0124908D01*
X0034558Y0125962D01*
X0040774Y0125962D01*
X0041800Y0124936D01*
X0042826Y0125962D01*
X0049042Y0125962D01*
X0049884Y0125120D01*
X0051044Y0125600D01*
X0052556Y0125600D01*
X0053701Y0125126D01*
X0053701Y0125498D01*
X0054755Y0126553D01*
X0061364Y0126553D01*
X0061800Y0126117D01*
X0062236Y0126553D01*
X0068845Y0126553D01*
X0069899Y0125498D01*
X0069899Y0124200D01*
X0073504Y0124200D01*
X0073504Y0124908D01*
X0074558Y0125962D01*
X0080774Y0125962D01*
X0081800Y0124936D01*
X0082826Y0125962D01*
X0089042Y0125962D01*
X0090096Y0124908D01*
X0090096Y0118692D01*
X0089042Y0117638D01*
X0088200Y0117638D01*
X0088200Y0108794D01*
X0090701Y0106293D01*
X0090701Y0131961D01*
X0011600Y0131961D01*
X0011600Y0049027D01*
X0012472Y0049899D01*
X0021400Y0049899D01*
X0021400Y0059277D01*
X0021765Y0060159D01*
X0022441Y0060835D01*
X0033900Y0072294D01*
X0033900Y0076346D01*
X0034354Y0076800D01*
X0033900Y0077254D01*
X0033900Y0080506D01*
X0027159Y0073765D01*
X0026553Y0073514D01*
X0026553Y0069755D01*
X0025498Y0068701D01*
X0018102Y0068701D01*
X0017047Y0069755D01*
X0017047Y0076364D01*
X0017483Y0076800D01*
X0017047Y0077236D01*
X0017047Y0083845D01*
X0018102Y0084899D01*
X0019200Y0084899D01*
X0019200Y0088701D01*
X0018102Y0088701D01*
X0017047Y0089755D01*
X0017047Y0096364D01*
X0017483Y0096800D01*
X0017047Y0097236D01*
X0017047Y0103845D01*
X0018102Y0104899D01*
X0025498Y0104899D01*
X0026553Y0103845D01*
X0026553Y0102200D01*
X0068806Y0102200D01*
X0076441Y0109835D01*
X0077323Y0110200D01*
X0083400Y0110200D01*
X0083400Y0117638D01*
X0082826Y0117638D01*
X0081800Y0118664D01*
X0080774Y0117638D01*
X0074558Y0117638D01*
X0073504Y0118692D01*
X0073504Y0119400D01*
X0069899Y0119400D01*
X0069899Y0118102D01*
X0068845Y0117047D01*
X0062236Y0117047D01*
X0061800Y0117483D01*
X0061364Y0117047D01*
X0054755Y0117047D01*
X0053701Y0118102D01*
X0053701Y0118474D01*
X0054705Y0117097D02*
X0028895Y0117097D01*
X0029899Y0118696D02*
X0033504Y0118696D01*
X0033686Y0125090D02*
X0029899Y0125090D01*
X0022185Y0117097D02*
X0021043Y0117097D01*
X0018539Y0117097D02*
X0017580Y0117097D01*
X0017580Y0118696D02*
X0018539Y0118696D01*
X0018539Y0120294D02*
X0017580Y0120294D01*
X0017580Y0121893D02*
X0011600Y0121893D01*
X0011600Y0123491D02*
X0013701Y0123491D01*
X0013728Y0125090D02*
X0011600Y0125090D01*
X0011600Y0126688D02*
X0090701Y0126688D01*
X0090701Y0125090D02*
X0089914Y0125090D01*
X0090096Y0123491D02*
X0090701Y0123491D01*
X0090701Y0121893D02*
X0090096Y0121893D01*
X0090096Y0120294D02*
X0090701Y0120294D01*
X0090701Y0118696D02*
X0090096Y0118696D01*
X0090701Y0117097D02*
X0088200Y0117097D01*
X0088200Y0115499D02*
X0090701Y0115499D01*
X0090701Y0113900D02*
X0088200Y0113900D01*
X0088200Y0112302D02*
X0090701Y0112302D01*
X0090701Y0110703D02*
X0088200Y0110703D01*
X0088200Y0109105D02*
X0090701Y0109105D01*
X0090701Y0107506D02*
X0089488Y0107506D01*
X0086356Y0103648D02*
X0085301Y0104702D01*
X0078298Y0104702D01*
X0077244Y0103648D01*
X0077244Y0102167D01*
X0076441Y0101835D01*
X0071441Y0096835D01*
X0070765Y0096159D01*
X0070400Y0095277D01*
X0070400Y0082200D01*
X0069646Y0082200D01*
X0069700Y0082254D01*
X0069700Y0086346D01*
X0069246Y0086800D01*
X0069700Y0087254D01*
X0069700Y0091346D01*
X0068646Y0092400D01*
X0068200Y0092400D01*
X0068200Y0094806D01*
X0071159Y0097765D01*
X0071835Y0098441D01*
X0078794Y0105400D01*
X0084806Y0105400D01*
X0088400Y0101806D01*
X0088400Y0049899D01*
X0079095Y0049899D01*
X0053835Y0075159D01*
X0053159Y0075835D01*
X0052277Y0076200D01*
X0048039Y0076200D01*
X0048953Y0076579D01*
X0050021Y0077647D01*
X0050600Y0079044D01*
X0050600Y0080556D01*
X0050250Y0081400D01*
X0050806Y0081400D01*
X0053765Y0078441D01*
X0054441Y0077765D01*
X0055323Y0077400D01*
X0058100Y0077400D01*
X0058100Y0077254D01*
X0058554Y0076800D01*
X0058100Y0076346D01*
X0058100Y0072254D01*
X0059154Y0071200D01*
X0068646Y0071200D01*
X0068846Y0071400D01*
X0077244Y0071400D01*
X0077244Y0069952D01*
X0078298Y0068898D01*
X0085301Y0068898D01*
X0086356Y0069952D01*
X0086356Y0075774D01*
X0085301Y0076828D01*
X0085004Y0076828D01*
X0085251Y0076894D01*
X0085661Y0077131D01*
X0085996Y0077466D01*
X0086233Y0077877D01*
X0086356Y0078335D01*
X0086356Y0080454D01*
X0082083Y0080454D01*
X0082083Y0081020D01*
X0081517Y0081020D01*
X0081517Y0084702D01*
X0078807Y0084702D01*
X0078349Y0084580D01*
X0077939Y0084343D01*
X0077604Y0084008D01*
X0077367Y0083597D01*
X0077244Y0083139D01*
X0077244Y0081020D01*
X0081517Y0081020D01*
X0081517Y0080454D01*
X0077244Y0080454D01*
X0077244Y0078335D01*
X0077367Y0077877D01*
X0077604Y0077466D01*
X0077939Y0077131D01*
X0078349Y0076894D01*
X0078596Y0076828D01*
X0078298Y0076828D01*
X0077670Y0076200D01*
X0069700Y0076200D01*
X0069700Y0076346D01*
X0069246Y0076800D01*
X0069700Y0077254D01*
X0069700Y0077400D01*
X0073277Y0077400D01*
X0074159Y0077765D01*
X0074835Y0078441D01*
X0075200Y0079323D01*
X0075200Y0093806D01*
X0078232Y0096838D01*
X0078298Y0096772D01*
X0078596Y0096772D01*
X0078349Y0096706D01*
X0077939Y0096469D01*
X0077604Y0096134D01*
X0077367Y0095723D01*
X0077244Y0095265D01*
X0077244Y0093146D01*
X0081517Y0093146D01*
X0081517Y0092580D01*
X0082083Y0092580D01*
X0082083Y0093146D01*
X0086356Y0093146D01*
X0086356Y0095265D01*
X0086233Y0095723D01*
X0085996Y0096134D01*
X0085661Y0096469D01*
X0085251Y0096706D01*
X0085004Y0096772D01*
X0085301Y0096772D01*
X0086356Y0097826D01*
X0086356Y0103648D01*
X0085897Y0104309D02*
X0085695Y0104309D01*
X0086356Y0102711D02*
X0087495Y0102711D01*
X0088400Y0101112D02*
X0086356Y0101112D01*
X0086356Y0099514D02*
X0088400Y0099514D01*
X0088400Y0097915D02*
X0086356Y0097915D01*
X0085813Y0096317D02*
X0088400Y0096317D01*
X0088400Y0094718D02*
X0086356Y0094718D01*
X0086356Y0092580D02*
X0082083Y0092580D01*
X0082083Y0088898D01*
X0084793Y0088898D01*
X0085251Y0089020D01*
X0085661Y0089257D01*
X0085996Y0089592D01*
X0086233Y0090003D01*
X0086356Y0090461D01*
X0086356Y0092580D01*
X0086356Y0091521D02*
X0088400Y0091521D01*
X0088400Y0089923D02*
X0086187Y0089923D01*
X0088400Y0088324D02*
X0075200Y0088324D01*
X0075200Y0086726D02*
X0088400Y0086726D01*
X0088400Y0085127D02*
X0075200Y0085127D01*
X0075200Y0083529D02*
X0077348Y0083529D01*
X0077244Y0081930D02*
X0075200Y0081930D01*
X0075200Y0080332D02*
X0077244Y0080332D01*
X0077244Y0078733D02*
X0074956Y0078733D01*
X0077936Y0077134D02*
X0069580Y0077134D01*
X0069700Y0083529D02*
X0070400Y0083529D01*
X0070400Y0085127D02*
X0069700Y0085127D01*
X0069320Y0086726D02*
X0070400Y0086726D01*
X0070400Y0088324D02*
X0069700Y0088324D01*
X0069700Y0089923D02*
X0070400Y0089923D01*
X0070400Y0091521D02*
X0069524Y0091521D01*
X0070400Y0093120D02*
X0068200Y0093120D01*
X0068200Y0094718D02*
X0070400Y0094718D01*
X0070923Y0096317D02*
X0069711Y0096317D01*
X0071159Y0097765D02*
X0071159Y0097765D01*
X0071309Y0097915D02*
X0072521Y0097915D01*
X0071835Y0098441D02*
X0071835Y0098441D01*
X0072908Y0099514D02*
X0074120Y0099514D01*
X0074506Y0101112D02*
X0075718Y0101112D01*
X0076105Y0102711D02*
X0077244Y0102711D01*
X0077703Y0104309D02*
X0077905Y0104309D01*
X0075711Y0109105D02*
X0011600Y0109105D01*
X0011600Y0107506D02*
X0074112Y0107506D01*
X0072514Y0105908D02*
X0011600Y0105908D01*
X0011600Y0104309D02*
X0017512Y0104309D01*
X0017047Y0102711D02*
X0011600Y0102711D01*
X0011600Y0101112D02*
X0017047Y0101112D01*
X0017047Y0099514D02*
X0011600Y0099514D01*
X0011600Y0097915D02*
X0017047Y0097915D01*
X0017047Y0096317D02*
X0011600Y0096317D01*
X0011600Y0094718D02*
X0017047Y0094718D01*
X0017047Y0093120D02*
X0011600Y0093120D01*
X0011600Y0091521D02*
X0017047Y0091521D01*
X0017047Y0089923D02*
X0011600Y0089923D01*
X0011600Y0088324D02*
X0019200Y0088324D01*
X0019200Y0086726D02*
X0011600Y0086726D01*
X0011600Y0085127D02*
X0019200Y0085127D01*
X0017047Y0083529D02*
X0011600Y0083529D01*
X0011600Y0081930D02*
X0017047Y0081930D01*
X0017047Y0080332D02*
X0011600Y0080332D01*
X0011600Y0078733D02*
X0017047Y0078733D01*
X0017148Y0077134D02*
X0011600Y0077134D01*
X0011600Y0075536D02*
X0017047Y0075536D01*
X0017047Y0073937D02*
X0011600Y0073937D01*
X0011600Y0072339D02*
X0017047Y0072339D01*
X0017047Y0070740D02*
X0011600Y0070740D01*
X0011600Y0069142D02*
X0017660Y0069142D01*
X0011600Y0067543D02*
X0029149Y0067543D01*
X0030748Y0069142D02*
X0025939Y0069142D01*
X0026553Y0070740D02*
X0032346Y0070740D01*
X0033900Y0072339D02*
X0026553Y0072339D01*
X0027332Y0073937D02*
X0033900Y0073937D01*
X0033900Y0075536D02*
X0028930Y0075536D01*
X0030529Y0077134D02*
X0034020Y0077134D01*
X0033900Y0078733D02*
X0032127Y0078733D01*
X0033726Y0080332D02*
X0033900Y0080332D01*
X0039594Y0071200D02*
X0044446Y0071200D01*
X0044646Y0071400D01*
X0050806Y0071400D01*
X0075984Y0046222D01*
X0075984Y0034755D01*
X0077039Y0033701D01*
X0090701Y0033701D01*
X0090701Y0016802D01*
X0090028Y0016802D01*
X0090027Y0016802D01*
X0089211Y0016802D01*
X0088412Y0016802D01*
X0088230Y0016621D01*
X0088048Y0016802D01*
X0087081Y0016802D01*
X0087081Y0016802D01*
X0086265Y0016802D01*
X0083003Y0016802D01*
X0082579Y0016379D01*
X0082155Y0016802D01*
X0081188Y0016802D01*
X0081188Y0016802D01*
X0080389Y0016802D01*
X0079573Y0016802D01*
X0079038Y0016268D01*
X0078665Y0015895D01*
X0077758Y0016802D01*
X0076142Y0016802D01*
X0075000Y0015660D01*
X0075000Y0011600D01*
X0021450Y0011600D01*
X0022705Y0012854D01*
X0023765Y0015414D01*
X0023765Y0018185D01*
X0022705Y0020746D01*
X0020746Y0022705D01*
X0018185Y0023765D01*
X0015414Y0023765D01*
X0012854Y0022705D01*
X0011600Y0021450D01*
X0011600Y0034573D01*
X0012472Y0033701D01*
X0026561Y0033701D01*
X0027616Y0034755D01*
X0027616Y0048845D01*
X0026561Y0049899D01*
X0026200Y0049899D01*
X0026200Y0057806D01*
X0039594Y0071200D01*
X0039135Y0070740D02*
X0051465Y0070740D01*
X0053064Y0069142D02*
X0037536Y0069142D01*
X0035938Y0067543D02*
X0054662Y0067543D01*
X0056261Y0065945D02*
X0034339Y0065945D01*
X0032741Y0064346D02*
X0057859Y0064346D01*
X0059458Y0062748D02*
X0031142Y0062748D01*
X0029543Y0061149D02*
X0061056Y0061149D01*
X0062655Y0059551D02*
X0027945Y0059551D01*
X0026346Y0057952D02*
X0064254Y0057952D01*
X0065852Y0056354D02*
X0026200Y0056354D01*
X0026200Y0054755D02*
X0067451Y0054755D01*
X0069049Y0053157D02*
X0026200Y0053157D01*
X0026200Y0051558D02*
X0070648Y0051558D01*
X0072246Y0049960D02*
X0061211Y0049960D01*
X0061154Y0050172D02*
X0060918Y0050582D01*
X0060582Y0050918D01*
X0060172Y0051154D01*
X0059714Y0051277D01*
X0052600Y0051277D01*
X0052600Y0042600D01*
X0051000Y0042600D01*
X0051000Y0051277D01*
X0043886Y0051277D01*
X0043428Y0051154D01*
X0043018Y0050918D01*
X0042682Y0050582D01*
X0042445Y0050172D01*
X0042323Y0049714D01*
X0042323Y0042600D01*
X0051000Y0042600D01*
X0051000Y0041000D01*
X0042323Y0041000D01*
X0042323Y0033886D01*
X0042445Y0033428D01*
X0042682Y0033018D01*
X0043018Y0032682D01*
X0043428Y0032445D01*
X0043886Y0032323D01*
X0051000Y0032323D01*
X0051000Y0041000D01*
X0052600Y0041000D01*
X0052600Y0042600D01*
X0061277Y0042600D01*
X0061277Y0049714D01*
X0061154Y0050172D01*
X0061277Y0048361D02*
X0073845Y0048361D01*
X0075443Y0046763D02*
X0061277Y0046763D01*
X0061277Y0045164D02*
X0075984Y0045164D01*
X0075984Y0043566D02*
X0061277Y0043566D01*
X0061277Y0041000D02*
X0052600Y0041000D01*
X0052600Y0032323D01*
X0059714Y0032323D01*
X0060172Y0032445D01*
X0060582Y0032682D01*
X0060918Y0033018D01*
X0061154Y0033428D01*
X0061277Y0033886D01*
X0061277Y0041000D01*
X0061277Y0040369D02*
X0075984Y0040369D01*
X0075984Y0041967D02*
X0052600Y0041967D01*
X0052600Y0040369D02*
X0051000Y0040369D01*
X0051000Y0041967D02*
X0027616Y0041967D01*
X0027616Y0040369D02*
X0042323Y0040369D01*
X0042323Y0038770D02*
X0027616Y0038770D01*
X0027616Y0037172D02*
X0042323Y0037172D01*
X0042323Y0035573D02*
X0027616Y0035573D01*
X0026835Y0033975D02*
X0042323Y0033975D01*
X0043687Y0032376D02*
X0011600Y0032376D01*
X0011600Y0030778D02*
X0090701Y0030778D01*
X0090701Y0032376D02*
X0059913Y0032376D01*
X0061277Y0033975D02*
X0076765Y0033975D01*
X0075984Y0035573D02*
X0061277Y0035573D01*
X0061277Y0037172D02*
X0075984Y0037172D01*
X0075984Y0038770D02*
X0061277Y0038770D01*
X0052600Y0038770D02*
X0051000Y0038770D01*
X0051000Y0037172D02*
X0052600Y0037172D01*
X0052600Y0035573D02*
X0051000Y0035573D01*
X0051000Y0033975D02*
X0052600Y0033975D01*
X0052600Y0032376D02*
X0051000Y0032376D01*
X0051000Y0043566D02*
X0052600Y0043566D01*
X0052600Y0045164D02*
X0051000Y0045164D01*
X0051000Y0046763D02*
X0052600Y0046763D01*
X0052600Y0048361D02*
X0051000Y0048361D01*
X0051000Y0049960D02*
X0052600Y0049960D01*
X0042389Y0049960D02*
X0026200Y0049960D01*
X0027616Y0048361D02*
X0042323Y0048361D01*
X0042323Y0046763D02*
X0027616Y0046763D01*
X0027616Y0045164D02*
X0042323Y0045164D01*
X0042323Y0043566D02*
X0027616Y0043566D01*
X0021400Y0049960D02*
X0011600Y0049960D01*
X0011600Y0051558D02*
X0021400Y0051558D01*
X0021400Y0053157D02*
X0011600Y0053157D01*
X0011600Y0054755D02*
X0021400Y0054755D01*
X0021400Y0056354D02*
X0011600Y0056354D01*
X0011600Y0057952D02*
X0021400Y0057952D01*
X0021513Y0059551D02*
X0011600Y0059551D01*
X0011600Y0061149D02*
X0022755Y0061149D01*
X0024354Y0062748D02*
X0011600Y0062748D01*
X0011600Y0064346D02*
X0025952Y0064346D01*
X0027551Y0065945D02*
X0011600Y0065945D01*
X0021800Y0080540D02*
X0031800Y0089300D01*
X0031800Y0094300D01*
X0061800Y0094300D01*
X0058454Y0091700D02*
X0058100Y0091346D01*
X0058100Y0087254D01*
X0058554Y0086800D01*
X0058100Y0086346D01*
X0058100Y0082254D01*
X0058154Y0082200D01*
X0056794Y0082200D01*
X0053159Y0085835D01*
X0052277Y0086200D01*
X0045500Y0086200D01*
X0045500Y0086346D01*
X0045046Y0086800D01*
X0045140Y0086895D01*
X0045377Y0087305D01*
X0045500Y0087763D01*
X0045500Y0089300D01*
X0045500Y0090837D01*
X0045377Y0091295D01*
X0045143Y0091700D01*
X0058454Y0091700D01*
X0058276Y0091521D02*
X0045247Y0091521D01*
X0045500Y0089923D02*
X0058100Y0089923D01*
X0058100Y0088324D02*
X0045500Y0088324D01*
X0045500Y0089300D02*
X0039700Y0089300D01*
X0045500Y0089300D01*
X0045120Y0086726D02*
X0058480Y0086726D01*
X0058100Y0085127D02*
X0053867Y0085127D01*
X0055466Y0083529D02*
X0058100Y0083529D01*
X0058220Y0077134D02*
X0049509Y0077134D01*
X0050471Y0078733D02*
X0053473Y0078733D01*
X0051874Y0080332D02*
X0050600Y0080332D01*
X0053458Y0075536D02*
X0058100Y0075536D01*
X0058100Y0073937D02*
X0055057Y0073937D01*
X0056655Y0072339D02*
X0058100Y0072339D01*
X0058254Y0070740D02*
X0077244Y0070740D01*
X0078054Y0069142D02*
X0059852Y0069142D01*
X0061451Y0067543D02*
X0088400Y0067543D01*
X0088400Y0069142D02*
X0085546Y0069142D01*
X0086356Y0070740D02*
X0088400Y0070740D01*
X0088400Y0072339D02*
X0086356Y0072339D01*
X0086356Y0073937D02*
X0088400Y0073937D01*
X0088400Y0075536D02*
X0086356Y0075536D01*
X0085664Y0077134D02*
X0088400Y0077134D01*
X0088400Y0078733D02*
X0086356Y0078733D01*
X0086356Y0080332D02*
X0088400Y0080332D01*
X0088400Y0081930D02*
X0086356Y0081930D01*
X0086356Y0081020D02*
X0086356Y0083139D01*
X0086233Y0083597D01*
X0085996Y0084008D01*
X0085661Y0084343D01*
X0085251Y0084580D01*
X0084793Y0084702D01*
X0082083Y0084702D01*
X0082083Y0081020D01*
X0086356Y0081020D01*
X0086252Y0083529D02*
X0088400Y0083529D01*
X0082083Y0083529D02*
X0081517Y0083529D01*
X0081517Y0081930D02*
X0082083Y0081930D01*
X0081517Y0088898D02*
X0078807Y0088898D01*
X0078349Y0089020D01*
X0077939Y0089257D01*
X0077604Y0089592D01*
X0077367Y0090003D01*
X0077244Y0090461D01*
X0077244Y0092580D01*
X0081517Y0092580D01*
X0081517Y0088898D01*
X0081517Y0089923D02*
X0082083Y0089923D01*
X0082083Y0091521D02*
X0081517Y0091521D01*
X0081517Y0093120D02*
X0075200Y0093120D01*
X0075200Y0091521D02*
X0077244Y0091521D01*
X0077413Y0089923D02*
X0075200Y0089923D01*
X0076112Y0094718D02*
X0077244Y0094718D01*
X0077711Y0096317D02*
X0077787Y0096317D01*
X0082083Y0093120D02*
X0088400Y0093120D01*
X0083400Y0110703D02*
X0011600Y0110703D01*
X0011600Y0112302D02*
X0083400Y0112302D01*
X0083400Y0113900D02*
X0011600Y0113900D01*
X0011600Y0115499D02*
X0083400Y0115499D01*
X0083400Y0117097D02*
X0068895Y0117097D01*
X0069899Y0118696D02*
X0073504Y0118696D01*
X0073686Y0125090D02*
X0069899Y0125090D01*
X0062185Y0117097D02*
X0061415Y0117097D01*
X0070915Y0104309D02*
X0026088Y0104309D01*
X0026553Y0102711D02*
X0069317Y0102711D01*
X0081646Y0125090D02*
X0081954Y0125090D01*
X0090701Y0128287D02*
X0011600Y0128287D01*
X0011600Y0129885D02*
X0090701Y0129885D01*
X0090701Y0131484D02*
X0011600Y0131484D01*
X0017580Y0125090D02*
X0018539Y0125090D01*
X0018539Y0123491D02*
X0017580Y0123491D01*
X0013701Y0120294D02*
X0011600Y0120294D01*
X0011600Y0118696D02*
X0013701Y0118696D01*
X0015077Y0117097D02*
X0011600Y0117097D01*
X0021800Y0093060D02*
X0021800Y0080540D01*
X0039700Y0089300D02*
X0039700Y0089300D01*
X0063049Y0065945D02*
X0088400Y0065945D01*
X0088400Y0064346D02*
X0064648Y0064346D01*
X0066246Y0062748D02*
X0088400Y0062748D01*
X0088400Y0061149D02*
X0067845Y0061149D01*
X0069443Y0059551D02*
X0088400Y0059551D01*
X0088400Y0057952D02*
X0071042Y0057952D01*
X0072640Y0056354D02*
X0088400Y0056354D01*
X0088400Y0054755D02*
X0074239Y0054755D01*
X0075837Y0053157D02*
X0088400Y0053157D01*
X0088400Y0051558D02*
X0077436Y0051558D01*
X0079034Y0049960D02*
X0088400Y0049960D01*
X0090701Y0029179D02*
X0011600Y0029179D01*
X0011600Y0027581D02*
X0090701Y0027581D01*
X0090701Y0025982D02*
X0011600Y0025982D01*
X0011600Y0024384D02*
X0090701Y0024384D01*
X0090701Y0022785D02*
X0020552Y0022785D01*
X0022264Y0021187D02*
X0090701Y0021187D01*
X0090701Y0019588D02*
X0023184Y0019588D01*
X0023765Y0017990D02*
X0090701Y0017990D01*
X0088412Y0016802D02*
X0088412Y0016802D01*
X0088412Y0016802D01*
X0082591Y0016391D02*
X0082567Y0016391D01*
X0079573Y0016802D02*
X0079573Y0016802D01*
X0079573Y0016802D01*
X0079161Y0016391D02*
X0078169Y0016391D01*
X0075731Y0016391D02*
X0023765Y0016391D01*
X0023508Y0014793D02*
X0075000Y0014793D01*
X0075000Y0013194D02*
X0022846Y0013194D01*
X0013048Y0022785D02*
X0011600Y0022785D01*
X0011600Y0033975D02*
X0012198Y0033975D01*
X0041646Y0125090D02*
X0041954Y0125090D01*
D22*
X0061800Y0094300D03*
X0046800Y0089300D03*
X0046800Y0054300D03*
X0081800Y0086800D03*
X0016800Y0109300D03*
M02*
