G75*
%MOIN*%
%OFA0B0*%
%FSLAX25Y25*%
%IPPOS*%
%LPD*%
%AMOC8*
5,1,8,0,0,1.08239X$1,22.5*
%
%ADD10C,0.00300*%
%ADD11C,0.00500*%
%ADD12C,0.00600*%
%ADD13C,0.00200*%
%ADD14R,0.00787X0.00787*%
%ADD15C,0.00400*%
D10*
X0072002Y0073630D02*
X0072619Y0073013D01*
X0075088Y0073013D01*
X0075705Y0073630D01*
X0075705Y0074865D01*
X0075088Y0075482D01*
X0075705Y0076696D02*
X0073236Y0079165D01*
X0072619Y0079165D01*
X0072002Y0078548D01*
X0072002Y0077313D01*
X0072619Y0076696D01*
X0072619Y0075482D02*
X0072002Y0074865D01*
X0072002Y0073630D01*
X0075705Y0076696D02*
X0075705Y0079165D01*
X0075978Y0093521D02*
X0073509Y0093521D01*
X0072892Y0094138D01*
X0072892Y0095372D01*
X0073509Y0095989D01*
X0074126Y0097204D02*
X0072892Y0098438D01*
X0076595Y0098438D01*
X0076595Y0097204D02*
X0076595Y0099673D01*
X0075978Y0095989D02*
X0076595Y0095372D01*
X0076595Y0094138D01*
X0075978Y0093521D01*
X0084231Y0030671D02*
X0083748Y0030187D01*
X0083748Y0029220D01*
X0084231Y0028736D01*
X0086166Y0028736D01*
X0086650Y0029220D01*
X0086650Y0030187D01*
X0086166Y0030671D01*
X0084231Y0030671D01*
X0084231Y0027725D02*
X0083748Y0027241D01*
X0083748Y0026273D01*
X0084231Y0025790D01*
X0086166Y0025790D01*
X0086650Y0026273D01*
X0086650Y0027241D01*
X0086166Y0027725D01*
X0084231Y0027725D01*
X0083748Y0024778D02*
X0083748Y0023811D01*
X0083748Y0024294D02*
X0086166Y0024294D01*
X0086650Y0023811D01*
X0086650Y0023327D01*
X0086166Y0022843D01*
X0086166Y0021831D02*
X0086650Y0021348D01*
X0086650Y0020380D01*
X0086166Y0019897D01*
X0084231Y0019897D01*
X0083748Y0020380D01*
X0083748Y0021348D01*
X0084231Y0021831D01*
X0086166Y0021831D01*
X0086650Y0021831D02*
X0085683Y0020864D01*
X0086650Y0018885D02*
X0086650Y0016950D01*
X0083748Y0016950D01*
D11*
X0025580Y0015611D02*
X0025580Y0035343D01*
X0013060Y0035343D01*
X0013060Y0047863D01*
X0025580Y0047863D01*
X0025580Y0056863D01*
X0036131Y0068020D01*
X0066863Y0068020D01*
X0078020Y0056257D01*
X0078020Y0048257D01*
X0090540Y0048257D01*
X0090540Y0035343D01*
X0078020Y0035343D01*
X0078020Y0015611D01*
X0072800Y0015611D01*
X0063800Y0024461D01*
X0037225Y0024461D01*
X0028800Y0015611D01*
X0025580Y0015611D01*
X0041741Y0016447D02*
X0044794Y0016447D01*
X0045811Y0015430D01*
X0045811Y0014412D01*
X0044794Y0013395D01*
X0041741Y0013395D01*
X0041741Y0019500D01*
X0044794Y0019500D01*
X0045811Y0018483D01*
X0045811Y0017465D01*
X0044794Y0016447D01*
X0047818Y0016447D02*
X0051889Y0016447D01*
X0051889Y0017465D02*
X0051889Y0013395D01*
X0055931Y0013395D02*
X0055931Y0019500D01*
X0053896Y0019500D02*
X0057966Y0019500D01*
X0059973Y0019500D02*
X0064043Y0019500D01*
X0062008Y0019500D02*
X0062008Y0013395D01*
X0051889Y0017465D02*
X0049853Y0019500D01*
X0047818Y0017465D01*
X0047818Y0013395D01*
X0048811Y0053363D02*
X0044741Y0053363D01*
X0042734Y0053363D02*
X0040699Y0055398D01*
X0041717Y0055398D02*
X0038664Y0055398D01*
X0038664Y0053363D02*
X0038664Y0059469D01*
X0041717Y0059469D01*
X0042734Y0058451D01*
X0042734Y0056416D01*
X0041717Y0055398D01*
X0044741Y0057434D02*
X0046776Y0059469D01*
X0046776Y0053363D01*
X0050818Y0053363D02*
X0054889Y0057434D01*
X0054889Y0058451D01*
X0053871Y0059469D01*
X0051836Y0059469D01*
X0050818Y0058451D01*
X0050818Y0053363D02*
X0054889Y0053363D01*
X0056896Y0053363D02*
X0060966Y0057434D01*
X0060966Y0058451D01*
X0059948Y0059469D01*
X0057913Y0059469D01*
X0056896Y0058451D01*
X0056896Y0053363D02*
X0060966Y0053363D01*
X0062973Y0054381D02*
X0067043Y0058451D01*
X0067043Y0054381D01*
X0066025Y0053363D01*
X0063990Y0053363D01*
X0062973Y0054381D01*
X0062973Y0058451D01*
X0063990Y0059469D01*
X0066025Y0059469D01*
X0067043Y0058451D01*
X0080690Y0041800D02*
X0080692Y0041920D01*
X0080698Y0042040D01*
X0080708Y0042159D01*
X0080722Y0042278D01*
X0080740Y0042397D01*
X0080761Y0042515D01*
X0080787Y0042632D01*
X0080817Y0042748D01*
X0080850Y0042863D01*
X0080887Y0042977D01*
X0080928Y0043089D01*
X0080973Y0043201D01*
X0081022Y0043310D01*
X0081074Y0043418D01*
X0081129Y0043525D01*
X0081188Y0043629D01*
X0081251Y0043731D01*
X0081317Y0043831D01*
X0081386Y0043929D01*
X0081458Y0044025D01*
X0081534Y0044118D01*
X0081612Y0044208D01*
X0081694Y0044296D01*
X0081778Y0044381D01*
X0081865Y0044464D01*
X0081955Y0044543D01*
X0082048Y0044619D01*
X0082143Y0044692D01*
X0082240Y0044762D01*
X0082340Y0044829D01*
X0082441Y0044892D01*
X0082545Y0044952D01*
X0082651Y0045009D01*
X0082758Y0045062D01*
X0082868Y0045111D01*
X0082979Y0045157D01*
X0083091Y0045199D01*
X0083205Y0045237D01*
X0083319Y0045271D01*
X0083435Y0045302D01*
X0083552Y0045328D01*
X0083670Y0045351D01*
X0083788Y0045370D01*
X0083907Y0045385D01*
X0084027Y0045396D01*
X0084146Y0045403D01*
X0084266Y0045406D01*
X0084386Y0045405D01*
X0084506Y0045400D01*
X0084625Y0045391D01*
X0084744Y0045378D01*
X0084863Y0045361D01*
X0084981Y0045340D01*
X0085098Y0045316D01*
X0085215Y0045287D01*
X0085330Y0045255D01*
X0085444Y0045218D01*
X0085557Y0045178D01*
X0085669Y0045134D01*
X0085779Y0045087D01*
X0085888Y0045036D01*
X0085994Y0044981D01*
X0086099Y0044923D01*
X0086202Y0044861D01*
X0086303Y0044796D01*
X0086401Y0044728D01*
X0086497Y0044656D01*
X0086591Y0044582D01*
X0086682Y0044504D01*
X0086771Y0044423D01*
X0086856Y0044339D01*
X0086939Y0044253D01*
X0087019Y0044163D01*
X0087097Y0044072D01*
X0087170Y0043977D01*
X0087241Y0043881D01*
X0087309Y0043782D01*
X0087373Y0043680D01*
X0087434Y0043577D01*
X0087491Y0043472D01*
X0087545Y0043365D01*
X0087595Y0043256D01*
X0087642Y0043145D01*
X0087685Y0043033D01*
X0087724Y0042920D01*
X0087759Y0042805D01*
X0087790Y0042690D01*
X0087818Y0042573D01*
X0087842Y0042456D01*
X0087862Y0042337D01*
X0087878Y0042219D01*
X0087890Y0042099D01*
X0087898Y0041980D01*
X0087902Y0041860D01*
X0087902Y0041740D01*
X0087898Y0041620D01*
X0087890Y0041501D01*
X0087878Y0041381D01*
X0087862Y0041263D01*
X0087842Y0041144D01*
X0087818Y0041027D01*
X0087790Y0040910D01*
X0087759Y0040795D01*
X0087724Y0040680D01*
X0087685Y0040567D01*
X0087642Y0040455D01*
X0087595Y0040344D01*
X0087545Y0040235D01*
X0087491Y0040128D01*
X0087434Y0040023D01*
X0087373Y0039920D01*
X0087309Y0039818D01*
X0087241Y0039719D01*
X0087170Y0039623D01*
X0087097Y0039528D01*
X0087019Y0039437D01*
X0086939Y0039347D01*
X0086856Y0039261D01*
X0086771Y0039177D01*
X0086682Y0039096D01*
X0086591Y0039018D01*
X0086497Y0038944D01*
X0086401Y0038872D01*
X0086303Y0038804D01*
X0086202Y0038739D01*
X0086099Y0038677D01*
X0085994Y0038619D01*
X0085888Y0038564D01*
X0085779Y0038513D01*
X0085669Y0038466D01*
X0085557Y0038422D01*
X0085444Y0038382D01*
X0085330Y0038345D01*
X0085215Y0038313D01*
X0085098Y0038284D01*
X0084981Y0038260D01*
X0084863Y0038239D01*
X0084744Y0038222D01*
X0084625Y0038209D01*
X0084506Y0038200D01*
X0084386Y0038195D01*
X0084266Y0038194D01*
X0084146Y0038197D01*
X0084027Y0038204D01*
X0083907Y0038215D01*
X0083788Y0038230D01*
X0083670Y0038249D01*
X0083552Y0038272D01*
X0083435Y0038298D01*
X0083319Y0038329D01*
X0083205Y0038363D01*
X0083091Y0038401D01*
X0082979Y0038443D01*
X0082868Y0038489D01*
X0082758Y0038538D01*
X0082651Y0038591D01*
X0082545Y0038648D01*
X0082441Y0038708D01*
X0082340Y0038771D01*
X0082240Y0038838D01*
X0082143Y0038908D01*
X0082048Y0038981D01*
X0081955Y0039057D01*
X0081865Y0039136D01*
X0081778Y0039219D01*
X0081694Y0039304D01*
X0081612Y0039392D01*
X0081534Y0039482D01*
X0081458Y0039575D01*
X0081386Y0039671D01*
X0081317Y0039769D01*
X0081251Y0039869D01*
X0081188Y0039971D01*
X0081129Y0040075D01*
X0081074Y0040182D01*
X0081022Y0040290D01*
X0080973Y0040399D01*
X0080928Y0040511D01*
X0080887Y0040623D01*
X0080850Y0040737D01*
X0080817Y0040852D01*
X0080787Y0040968D01*
X0080761Y0041085D01*
X0080740Y0041203D01*
X0080722Y0041322D01*
X0080708Y0041441D01*
X0080698Y0041560D01*
X0080692Y0041680D01*
X0080690Y0041800D01*
X0055226Y0093550D02*
X0052223Y0093550D01*
X0053724Y0093550D02*
X0053724Y0098054D01*
X0052223Y0096553D01*
X0050622Y0097303D02*
X0049871Y0098054D01*
X0048370Y0098054D01*
X0047619Y0097303D01*
X0047619Y0094301D01*
X0048370Y0093550D01*
X0049871Y0093550D01*
X0050622Y0094301D01*
X0046051Y0093550D02*
X0044550Y0093550D01*
X0045301Y0093550D02*
X0045301Y0098054D01*
X0046051Y0098054D02*
X0044550Y0098054D01*
X0035639Y0059469D02*
X0033604Y0059469D01*
X0032587Y0058451D01*
X0032587Y0054381D01*
X0033604Y0053363D01*
X0035639Y0053363D01*
X0036657Y0054381D01*
X0036657Y0058451D02*
X0035639Y0059469D01*
X0015123Y0041194D02*
X0015125Y0041314D01*
X0015131Y0041434D01*
X0015141Y0041553D01*
X0015155Y0041672D01*
X0015173Y0041791D01*
X0015194Y0041909D01*
X0015220Y0042026D01*
X0015250Y0042142D01*
X0015283Y0042257D01*
X0015320Y0042371D01*
X0015361Y0042483D01*
X0015406Y0042595D01*
X0015455Y0042704D01*
X0015507Y0042812D01*
X0015562Y0042919D01*
X0015621Y0043023D01*
X0015684Y0043125D01*
X0015750Y0043225D01*
X0015819Y0043323D01*
X0015891Y0043419D01*
X0015967Y0043512D01*
X0016045Y0043602D01*
X0016127Y0043690D01*
X0016211Y0043775D01*
X0016298Y0043858D01*
X0016388Y0043937D01*
X0016481Y0044013D01*
X0016576Y0044086D01*
X0016673Y0044156D01*
X0016773Y0044223D01*
X0016874Y0044286D01*
X0016978Y0044346D01*
X0017084Y0044403D01*
X0017191Y0044456D01*
X0017301Y0044505D01*
X0017412Y0044551D01*
X0017524Y0044593D01*
X0017638Y0044631D01*
X0017752Y0044665D01*
X0017868Y0044696D01*
X0017985Y0044722D01*
X0018103Y0044745D01*
X0018221Y0044764D01*
X0018340Y0044779D01*
X0018460Y0044790D01*
X0018579Y0044797D01*
X0018699Y0044800D01*
X0018819Y0044799D01*
X0018939Y0044794D01*
X0019058Y0044785D01*
X0019177Y0044772D01*
X0019296Y0044755D01*
X0019414Y0044734D01*
X0019531Y0044710D01*
X0019648Y0044681D01*
X0019763Y0044649D01*
X0019877Y0044612D01*
X0019990Y0044572D01*
X0020102Y0044528D01*
X0020212Y0044481D01*
X0020321Y0044430D01*
X0020427Y0044375D01*
X0020532Y0044317D01*
X0020635Y0044255D01*
X0020736Y0044190D01*
X0020834Y0044122D01*
X0020930Y0044050D01*
X0021024Y0043976D01*
X0021115Y0043898D01*
X0021204Y0043817D01*
X0021289Y0043733D01*
X0021372Y0043647D01*
X0021452Y0043557D01*
X0021530Y0043466D01*
X0021603Y0043371D01*
X0021674Y0043275D01*
X0021742Y0043176D01*
X0021806Y0043074D01*
X0021867Y0042971D01*
X0021924Y0042866D01*
X0021978Y0042759D01*
X0022028Y0042650D01*
X0022075Y0042539D01*
X0022118Y0042427D01*
X0022157Y0042314D01*
X0022192Y0042199D01*
X0022223Y0042084D01*
X0022251Y0041967D01*
X0022275Y0041850D01*
X0022295Y0041731D01*
X0022311Y0041613D01*
X0022323Y0041493D01*
X0022331Y0041374D01*
X0022335Y0041254D01*
X0022335Y0041134D01*
X0022331Y0041014D01*
X0022323Y0040895D01*
X0022311Y0040775D01*
X0022295Y0040657D01*
X0022275Y0040538D01*
X0022251Y0040421D01*
X0022223Y0040304D01*
X0022192Y0040189D01*
X0022157Y0040074D01*
X0022118Y0039961D01*
X0022075Y0039849D01*
X0022028Y0039738D01*
X0021978Y0039629D01*
X0021924Y0039522D01*
X0021867Y0039417D01*
X0021806Y0039314D01*
X0021742Y0039212D01*
X0021674Y0039113D01*
X0021603Y0039017D01*
X0021530Y0038922D01*
X0021452Y0038831D01*
X0021372Y0038741D01*
X0021289Y0038655D01*
X0021204Y0038571D01*
X0021115Y0038490D01*
X0021024Y0038412D01*
X0020930Y0038338D01*
X0020834Y0038266D01*
X0020736Y0038198D01*
X0020635Y0038133D01*
X0020532Y0038071D01*
X0020427Y0038013D01*
X0020321Y0037958D01*
X0020212Y0037907D01*
X0020102Y0037860D01*
X0019990Y0037816D01*
X0019877Y0037776D01*
X0019763Y0037739D01*
X0019648Y0037707D01*
X0019531Y0037678D01*
X0019414Y0037654D01*
X0019296Y0037633D01*
X0019177Y0037616D01*
X0019058Y0037603D01*
X0018939Y0037594D01*
X0018819Y0037589D01*
X0018699Y0037588D01*
X0018579Y0037591D01*
X0018460Y0037598D01*
X0018340Y0037609D01*
X0018221Y0037624D01*
X0018103Y0037643D01*
X0017985Y0037666D01*
X0017868Y0037692D01*
X0017752Y0037723D01*
X0017638Y0037757D01*
X0017524Y0037795D01*
X0017412Y0037837D01*
X0017301Y0037883D01*
X0017191Y0037932D01*
X0017084Y0037985D01*
X0016978Y0038042D01*
X0016874Y0038102D01*
X0016773Y0038165D01*
X0016673Y0038232D01*
X0016576Y0038302D01*
X0016481Y0038375D01*
X0016388Y0038451D01*
X0016298Y0038530D01*
X0016211Y0038613D01*
X0016127Y0038698D01*
X0016045Y0038786D01*
X0015967Y0038876D01*
X0015891Y0038969D01*
X0015819Y0039065D01*
X0015750Y0039163D01*
X0015684Y0039263D01*
X0015621Y0039365D01*
X0015562Y0039469D01*
X0015507Y0039576D01*
X0015455Y0039684D01*
X0015406Y0039793D01*
X0015361Y0039905D01*
X0015320Y0040017D01*
X0015283Y0040131D01*
X0015250Y0040246D01*
X0015220Y0040362D01*
X0015194Y0040479D01*
X0015173Y0040597D01*
X0015155Y0040716D01*
X0015141Y0040835D01*
X0015131Y0040954D01*
X0015125Y0041074D01*
X0015123Y0041194D01*
D12*
X0044100Y0073300D02*
X0044100Y0090300D01*
X0044102Y0090376D01*
X0044108Y0090452D01*
X0044117Y0090527D01*
X0044131Y0090602D01*
X0044148Y0090676D01*
X0044169Y0090749D01*
X0044193Y0090821D01*
X0044222Y0090892D01*
X0044253Y0090961D01*
X0044288Y0091028D01*
X0044327Y0091093D01*
X0044369Y0091157D01*
X0044414Y0091218D01*
X0044462Y0091277D01*
X0044513Y0091333D01*
X0044567Y0091387D01*
X0044623Y0091438D01*
X0044682Y0091486D01*
X0044743Y0091531D01*
X0044807Y0091573D01*
X0044872Y0091612D01*
X0044939Y0091647D01*
X0045008Y0091678D01*
X0045079Y0091707D01*
X0045151Y0091731D01*
X0045224Y0091752D01*
X0045298Y0091769D01*
X0045373Y0091783D01*
X0045448Y0091792D01*
X0045524Y0091798D01*
X0045600Y0091800D01*
X0058000Y0091800D01*
X0058076Y0091798D01*
X0058152Y0091792D01*
X0058227Y0091783D01*
X0058302Y0091769D01*
X0058376Y0091752D01*
X0058449Y0091731D01*
X0058521Y0091707D01*
X0058592Y0091678D01*
X0058661Y0091647D01*
X0058728Y0091612D01*
X0058793Y0091573D01*
X0058857Y0091531D01*
X0058918Y0091486D01*
X0058977Y0091438D01*
X0059033Y0091387D01*
X0059087Y0091333D01*
X0059138Y0091277D01*
X0059186Y0091218D01*
X0059231Y0091157D01*
X0059273Y0091093D01*
X0059312Y0091028D01*
X0059347Y0090961D01*
X0059378Y0090892D01*
X0059407Y0090821D01*
X0059431Y0090749D01*
X0059452Y0090676D01*
X0059469Y0090602D01*
X0059483Y0090527D01*
X0059492Y0090452D01*
X0059498Y0090376D01*
X0059500Y0090300D01*
X0059500Y0073300D01*
X0059498Y0073224D01*
X0059492Y0073148D01*
X0059483Y0073073D01*
X0059469Y0072998D01*
X0059452Y0072924D01*
X0059431Y0072851D01*
X0059407Y0072779D01*
X0059378Y0072708D01*
X0059347Y0072639D01*
X0059312Y0072572D01*
X0059273Y0072507D01*
X0059231Y0072443D01*
X0059186Y0072382D01*
X0059138Y0072323D01*
X0059087Y0072267D01*
X0059033Y0072213D01*
X0058977Y0072162D01*
X0058918Y0072114D01*
X0058857Y0072069D01*
X0058793Y0072027D01*
X0058728Y0071988D01*
X0058661Y0071953D01*
X0058592Y0071922D01*
X0058521Y0071893D01*
X0058449Y0071869D01*
X0058376Y0071848D01*
X0058302Y0071831D01*
X0058227Y0071817D01*
X0058152Y0071808D01*
X0058076Y0071802D01*
X0058000Y0071800D01*
X0045600Y0071800D01*
X0045524Y0071802D01*
X0045448Y0071808D01*
X0045373Y0071817D01*
X0045298Y0071831D01*
X0045224Y0071848D01*
X0045151Y0071869D01*
X0045079Y0071893D01*
X0045008Y0071922D01*
X0044939Y0071953D01*
X0044872Y0071988D01*
X0044807Y0072027D01*
X0044743Y0072069D01*
X0044682Y0072114D01*
X0044623Y0072162D01*
X0044567Y0072213D01*
X0044513Y0072267D01*
X0044462Y0072323D01*
X0044414Y0072382D01*
X0044369Y0072443D01*
X0044327Y0072507D01*
X0044288Y0072572D01*
X0044253Y0072639D01*
X0044222Y0072708D01*
X0044193Y0072779D01*
X0044169Y0072851D01*
X0044148Y0072924D01*
X0044131Y0072998D01*
X0044117Y0073073D01*
X0044108Y0073148D01*
X0044102Y0073224D01*
X0044100Y0073300D01*
X0049800Y0091800D02*
X0049802Y0091712D01*
X0049808Y0091623D01*
X0049818Y0091535D01*
X0049831Y0091448D01*
X0049849Y0091361D01*
X0049870Y0091275D01*
X0049895Y0091190D01*
X0049924Y0091107D01*
X0049957Y0091024D01*
X0049993Y0090944D01*
X0050032Y0090865D01*
X0050075Y0090787D01*
X0050122Y0090712D01*
X0050172Y0090639D01*
X0050225Y0090568D01*
X0050281Y0090499D01*
X0050340Y0090433D01*
X0050402Y0090370D01*
X0050466Y0090310D01*
X0050533Y0090252D01*
X0050603Y0090198D01*
X0050675Y0090146D01*
X0050749Y0090098D01*
X0050826Y0090053D01*
X0050904Y0090012D01*
X0050984Y0089974D01*
X0051065Y0089940D01*
X0051148Y0089909D01*
X0051233Y0089882D01*
X0051318Y0089859D01*
X0051404Y0089840D01*
X0051492Y0089824D01*
X0051579Y0089812D01*
X0051667Y0089804D01*
X0051756Y0089800D01*
X0051844Y0089800D01*
X0051933Y0089804D01*
X0052021Y0089812D01*
X0052108Y0089824D01*
X0052196Y0089840D01*
X0052282Y0089859D01*
X0052367Y0089882D01*
X0052452Y0089909D01*
X0052535Y0089940D01*
X0052616Y0089974D01*
X0052696Y0090012D01*
X0052774Y0090053D01*
X0052851Y0090098D01*
X0052925Y0090146D01*
X0052997Y0090198D01*
X0053067Y0090252D01*
X0053134Y0090310D01*
X0053198Y0090370D01*
X0053260Y0090433D01*
X0053319Y0090499D01*
X0053375Y0090568D01*
X0053428Y0090639D01*
X0053478Y0090712D01*
X0053525Y0090787D01*
X0053568Y0090865D01*
X0053607Y0090944D01*
X0053643Y0091024D01*
X0053676Y0091107D01*
X0053705Y0091190D01*
X0053730Y0091275D01*
X0053751Y0091361D01*
X0053769Y0091448D01*
X0053782Y0091535D01*
X0053792Y0091623D01*
X0053798Y0091712D01*
X0053800Y0091800D01*
D13*
X0045500Y0091800D02*
X0045500Y0071800D01*
D14*
X0041406Y0121800D03*
X0081406Y0121800D03*
D15*
X0080094Y0116604D02*
X0077792Y0116604D01*
X0077792Y0112000D01*
X0080094Y0112000D01*
X0080861Y0112767D01*
X0080861Y0115837D01*
X0080094Y0116604D01*
X0082396Y0115069D02*
X0083931Y0116604D01*
X0083931Y0112000D01*
X0085465Y0112000D02*
X0082396Y0112000D01*
X0076257Y0112000D02*
X0073188Y0112000D01*
X0073188Y0116604D01*
X0076257Y0116604D01*
X0074723Y0114302D02*
X0073188Y0114302D01*
X0071654Y0112000D02*
X0068584Y0112000D01*
X0068584Y0116604D01*
X0062173Y0114302D02*
X0059104Y0114302D01*
X0061406Y0116604D01*
X0061406Y0112000D01*
X0057569Y0112000D02*
X0056035Y0113535D01*
X0056802Y0113535D02*
X0054500Y0113535D01*
X0054500Y0112000D02*
X0054500Y0116604D01*
X0056802Y0116604D01*
X0057569Y0115837D01*
X0057569Y0114302D01*
X0056802Y0113535D01*
X0045465Y0115069D02*
X0045465Y0115837D01*
X0044698Y0116604D01*
X0043163Y0116604D01*
X0042396Y0115837D01*
X0040861Y0115837D02*
X0040094Y0116604D01*
X0037792Y0116604D01*
X0037792Y0112000D01*
X0040094Y0112000D01*
X0040861Y0112767D01*
X0040861Y0115837D01*
X0042396Y0112000D02*
X0045465Y0115069D01*
X0045465Y0112000D02*
X0042396Y0112000D01*
X0036257Y0112000D02*
X0033188Y0112000D01*
X0033188Y0116604D01*
X0036257Y0116604D01*
X0034723Y0114302D02*
X0033188Y0114302D01*
X0031654Y0112000D02*
X0028584Y0112000D01*
X0028584Y0116604D01*
X0022173Y0115837D02*
X0022173Y0115069D01*
X0021406Y0114302D01*
X0022173Y0113535D01*
X0022173Y0112767D01*
X0021406Y0112000D01*
X0019871Y0112000D01*
X0019104Y0112767D01*
X0020639Y0114302D02*
X0021406Y0114302D01*
X0022173Y0115837D02*
X0021406Y0116604D01*
X0019871Y0116604D01*
X0019104Y0115837D01*
X0017569Y0115837D02*
X0017569Y0114302D01*
X0016802Y0113535D01*
X0014500Y0113535D01*
X0016035Y0113535D02*
X0017569Y0112000D01*
X0014500Y0112000D02*
X0014500Y0116604D01*
X0016802Y0116604D01*
X0017569Y0115837D01*
X0026996Y0100639D02*
X0031600Y0100639D01*
X0031600Y0102173D02*
X0031600Y0099104D01*
X0031600Y0097569D02*
X0030065Y0096035D01*
X0030065Y0096802D02*
X0029298Y0097569D01*
X0027763Y0097569D01*
X0026996Y0096802D01*
X0026996Y0094500D01*
X0031600Y0094500D01*
X0030065Y0094500D02*
X0030065Y0096802D01*
X0028531Y0099104D02*
X0026996Y0100639D01*
X0027763Y0082173D02*
X0026996Y0081406D01*
X0026996Y0079871D01*
X0027763Y0079104D01*
X0027763Y0077569D02*
X0029298Y0077569D01*
X0030065Y0076802D01*
X0030065Y0074500D01*
X0030065Y0076035D02*
X0031600Y0077569D01*
X0031600Y0079104D02*
X0028531Y0082173D01*
X0027763Y0082173D01*
X0027763Y0077569D02*
X0026996Y0076802D01*
X0026996Y0074500D01*
X0031600Y0074500D01*
X0031600Y0079104D02*
X0031600Y0082173D01*
M02*
